Coordinates
version=1
nRows=9
nColumns=36
inDegrees=yes

Units are S.I. units (second, meters, Newtons, ...)
If the header above contains a line with 'inDegrees', this indicates whether rotational values are in degrees (yes) or radians (no).

endheader
time	pelvis_tilt	pelvis_list	pelvis_rotation	pelvis_tx	pelvis_ty	pelvis_tz	hip_flexion_r	hip_adduction_r	hip_rotation_r	knee_angle_r	knee_angle_r_beta	ankle_angle_r	subtalar_angle_r	mtp_angle_r	hip_flexion_l	hip_adduction_l	hip_rotation_l	knee_angle_l	knee_angle_l_beta	ankle_angle_l	subtalar_angle_l	mtp_angle_l	lumbar_extension	lumbar_bending	lumbar_rotation	arm_flex_r	arm_add_r	arm_rot_r	elbow_flex_r	pro_sup_r	arm_flex_l	arm_add_l	arm_rot_l	elbow_flex_l	pro_sup_l
      0.00000000	     -3.91995252	     -2.42762763	      1.67750858	      0.79008894	      0.90147583	      0.05494562	      5.27533160	     -6.06181545	     -6.80542681	      5.54317800	      0.09674671	     -1.39708341	    -15.52857574	     -6.49363985	      5.59883825	     -8.87898039	     -9.40534897	      6.78356516	      0.11839555	      5.52475879	     -4.60111396	     -6.49363985	     -2.48755636	     -2.44735071	      0.34285639	     47.03567432	     15.69865769	     60.16058756	    123.03660791	    106.02851516	     37.71244413	     10.59636458	     59.69691611	    124.78727001	    108.75459741
      0.01666670	     -7.35364793	     -2.75402564	      0.94120397	      0.79363530	      0.89120550	      0.05554064	      8.78543258	     -6.04878608	     -8.58978879	      5.32213116	      0.09288871	      2.32416293	    -10.28049510	     -6.77543873	      9.06915360	     -9.20925171	    -12.65389696	      6.73527468	      0.11755272	      6.68524048	     -3.15179666	     -6.77543873	      2.60647436	     -2.07864083	      0.45307508	     48.05770123	     16.19222600	     60.52874211	    125.19162705	    106.61587411	     38.58734130	     11.20041489	     61.12051136	    126.31980204	    106.25336459
      0.03333330	     -8.06663605	     -2.38648906	      0.34412479	      0.79465393	      0.89184748	      0.05658679	      9.14251332	     -6.43366126	     -9.23348141	      4.29076319	      0.07488795	      2.63845478	     -8.60315441	     -6.92177786	      9.58559848	     -9.01279970	    -14.28892458	      6.57262897	      0.11471402	      5.92965156	     -3.27250294	     -6.92177786	      3.63661600	     -2.45281781	      1.08068038	     47.84682413	     16.28354053	     61.09290292	    126.06171629	    106.42143007	     38.47016300	     10.85010985	     61.50883745	    127.45814132	    104.99042304
      0.05000000	     -8.20476762	     -1.94468197	      0.22286541	      0.79517652	      0.89191393	      0.05656881	      8.97149286	     -6.82689342	     -9.77613980	      3.47209000	      0.06059940	      3.26429941	     -6.97820787	     -7.01435091	      9.14367496	     -8.55699069	    -15.39158886	      5.55392838	      0.09693434	      5.08482495	     -2.91079800	     -7.01435091	      3.99144297	     -2.96899104	      1.45041927	     47.57328784	     16.30497778	     61.97924547	    126.09888713	    104.46625572	     38.93629269	     10.77555378	     62.13297285	    127.05113228	    102.64714204
      0.06666670	     -8.32775622	     -1.76535876	      0.03110076	      0.79511490	      0.89378003	      0.05682741	      8.79997046	     -6.92160928	    -10.20269167	      2.82190336	      0.04925150	      3.46458984	     -5.65541124	     -7.08870844	      8.88025753	     -8.35270884	    -16.01388659	      4.86201610	      0.08485819	      4.69782273	     -2.32317193	     -7.08870844	      4.26197936	     -2.98287867	      1.84074374	     47.39482882	     16.29720089	     62.83025258	    125.63200209	    105.36524838	     39.18853072	     10.64966056	     62.61832785	    126.66999995	    102.89180226
      0.08333330	     -8.33534316	     -1.67938206	      0.01785315	      0.79542461	      0.89634375	      0.05629813	      8.63868092	     -6.91837842	    -10.52771885	      2.53662558	      0.04427247	      3.64349852	     -4.90371032	     -7.13869236	      8.78146773	     -8.19682750	    -16.12214358	      4.56164956	      0.07961580	      4.21513969	     -2.29378839	     -7.13869236	      4.27884409	     -2.88799565	      2.06266572	     46.95964763	     16.06611542	     63.96656146	    125.18114532	    103.76151178	     38.96840465	     10.50108834	     63.17854076	    126.33208604	    101.13450058
      0.10000000	     -8.14811206	     -1.63466369	      0.05353172	      0.79533468	      0.89615896	      0.05634112	      8.36818237	     -6.94071919	    -10.87899276	      2.36413617	      0.04126196	      3.77407946	     -4.25780286	     -7.27535516	      8.60761374	     -8.13340491	    -16.23282134	      4.46953857	      0.07800816	      3.91953488	     -2.04182866	     -7.27535516	      4.04718496	     -2.73617594	      2.24856720	     46.79116142	     15.86711903	     64.62379747	    124.55846027	    103.81675368	     38.86141599	     10.43931235	     63.48389431	    125.95666821	    100.58640505
      0.11666670	     -8.03692655	     -1.61738764	      0.14443991	      0.79532420	      0.89620468	      0.05614854	      8.18440888	     -6.95112818	    -11.16465720	      2.30115366	      0.04016271	      3.87647670	     -3.78683067	     -7.28407873	      8.51770577	     -8.08612052	    -16.14038487	      4.39784808	      0.07675693	      3.56221095	     -2.08253169	     -7.28407873	      3.92518056	     -2.61295900	      2.28000009	     46.66339583	     15.67932421	     65.00240083	    124.09002171	    102.98917319	     38.66433358	     10.40388261	     63.60904779	    125.71718009	     99.73962680
      0.13333330	     -7.88295018	     -1.62843424	      0.27781813	      0.79519020	      0.89613451	      0.05612528	      7.91295487	     -6.94447278	    -11.58327397	      2.15843922	      0.03767187	      3.95686916	     -3.18032804	     -7.33660345	      8.36826864	     -8.10575317	    -16.31719388	      4.29761474	      0.07500753	      3.29929739	     -1.96589244	     -7.33660345	      3.72264341	     -2.48066864	      2.26483846	     46.74843993	     15.54669241	     65.14388404	    123.65873301	    102.05938831	     38.57745319	     10.35902486	     63.71693140	    125.61914331	     98.30386955
